<?xml version="1.0" encoding="utf-8"?>
<!-- Generator: Adobe Illustrator 15.1.0, SVG Export Plug-In . SVG Version: 6.00 Build 0)  -->
<!DOCTYPE svg PUBLIC "-//W3C//DTD SVG 1.1//EN" "http://www.w3.org/Graphics/SVG/1.1/DTD/svg11.dtd">
<svg version="1.1" id="Layer_1" xmlns="http://www.w3.org/2000/svg" xmlns:xlink="http://www.w3.org/1999/xlink" x="0px" y="0px"
	 width="800px" height="600px" viewBox="0 0 800 600" enable-background="new 0 0 800 600" xml:space="preserve">
<path fill-rule="evenodd" clip-rule="evenodd" fill="#020202" d="M405.65,299.846h-1.219c0.089,0.369,0.141,0.755,0.141,1.153
	c0,2.55-1.928,4.616-4.308,4.616c-2.378,0-4.306-2.066-4.306-4.616c0-0.398,0.052-0.784,0.141-1.153h-1.219v6.346
	c0,0.318,0.241,0.577,0.539,0.577h9.692c0.298,0,0.539-0.259,0.539-0.577V299.846z M405.65,295.808c0-0.319-0.241-0.577-0.539-0.577
	h-1.615c-0.297,0-0.537,0.258-0.537,0.577v1.73c0,0.319,0.24,0.577,0.537,0.577h1.615c0.298,0,0.539-0.257,0.539-0.577V295.808z
	 M400.265,298.115c-1.486,0-2.692,1.292-2.692,2.884s1.206,2.886,2.692,2.886c1.487,0,2.694-1.293,2.694-2.886
	S401.752,298.115,400.265,298.115 M405.65,308.5h-10.77c-0.892,0-1.615-0.775-1.615-1.731V295.23c0-0.956,0.723-1.73,1.615-1.73
	h10.77c0.893,0,1.615,0.775,1.615,1.73v11.538C407.266,307.725,406.543,308.5,405.65,308.5"/>
</svg>
