<?xml version="1.0" encoding="utf-8"?>
<!-- Generator: Adobe Illustrator 15.1.0, SVG Export Plug-In . SVG Version: 6.00 Build 0)  -->
<!DOCTYPE svg PUBLIC "-//W3C//DTD SVG 1.1//EN" "http://www.w3.org/Graphics/SVG/1.1/DTD/svg11.dtd">
<svg version="1.1" id="Layer_1" xmlns="http://www.w3.org/2000/svg" xmlns:xlink="http://www.w3.org/1999/xlink" x="0px" y="0px"
	 width="50px" height="50px" viewBox="25 25 50 50" enable-background="new 25 25 50 50" xml:space="preserve">
<path fill="#020202" d="M69.225,46.185h-4.355c0.317,1.227,0.506,2.514,0.506,3.837c0,8.487-6.887,15.365-15.385,15.365
	c-8.491,0-15.374-6.879-15.374-15.365c0-1.323,0.185-2.61,0.502-3.837h-4.352v21.123c0,1.057,0.861,1.918,1.925,1.918h34.61
	c1.063,0,1.924-0.861,1.924-1.918V46.185L69.225,46.185z M69.225,32.745c0-1.062-0.861-1.921-1.924-1.921h-5.768
	c-1.061,0-1.918,0.859-1.918,1.921v5.758c0,1.062,0.857,1.922,1.918,1.922h5.768c1.063,0,1.924-0.856,1.924-1.922V32.745z
	 M49.994,40.424c-5.303,0-9.61,4.299-9.61,9.598c0,5.298,4.307,9.605,9.61,9.605c5.311,0,9.622-4.304,9.622-9.605
	S55.305,40.424,49.994,40.424 M69.225,74.989H30.766c-3.186,0-5.766-2.581-5.766-5.764V30.821c0-3.182,2.581-5.759,5.766-5.759
	h38.458c3.188,0,5.765,2.58,5.765,5.759v38.402C74.993,72.408,72.412,74.989,69.225,74.989"/>
</svg>
