<?xml version="1.0" encoding="utf-8"?>
<!-- Generator: Adobe Illustrator 15.1.0, SVG Export Plug-In . SVG Version: 6.00 Build 0)  -->
<!DOCTYPE svg PUBLIC "-//W3C//DTD SVG 1.1//EN" "http://www.w3.org/Graphics/SVG/1.1/DTD/svg11.dtd">
<svg version="1.1" id="Layer_1" xmlns="http://www.w3.org/2000/svg" xmlns:xlink="http://www.w3.org/1999/xlink" x="0px" y="0px"
	 width="50px" height="50px" viewBox="25 25 50 50" enable-background="new 25 25 50 50" xml:space="preserve">
<path d="M74.986,46.461c0-11.196-11.227-20.308-25.025-20.308c-13.801,0-25.027,9.111-25.027,20.308
	c0,10.038,8.903,18.449,20.932,20.041c0.814,0.174,1.923,0.538,2.204,1.233c0.252,0.631,0.163,1.622,0.08,2.261
	c0,0-0.292,1.768-0.356,2.146c-0.109,0.632-0.505,2.473,2.167,1.347c2.67-1.124,14.41-8.487,19.661-14.53H69.62
	C73.247,54.98,74.986,50.942,74.986,46.461 M40.165,53.124h-4.972c-0.725,0-1.313-0.588-1.313-1.315v-9.942
	c0-0.724,0.589-1.313,1.313-1.313c0.722,0,1.31,0.589,1.31,1.313v8.631h3.662c0.724,0,1.31,0.59,1.31,1.313
	C41.474,52.536,40.888,53.124,40.165,53.124 M45.307,51.809c0,0.726-0.588,1.315-1.313,1.315c-0.72,0-1.312-0.588-1.312-1.315
	v-9.942c0-0.724,0.592-1.313,1.312-1.313c0.725,0,1.313,0.589,1.313,1.313V51.809z M57.275,51.809c0,0.569-0.36,1.069-0.896,1.249
	c-0.135,0.045-0.276,0.066-0.419,0.066c-0.406,0-0.799-0.194-1.047-0.525l-5.098-6.938v6.148c0,0.728-0.586,1.317-1.309,1.317
	c-0.725,0-1.313-0.59-1.313-1.317v-9.942c0-0.565,0.358-1.064,0.896-1.245c0.136-0.045,0.276-0.068,0.417-0.068
	c0.408,0,0.801,0.196,1.047,0.526l5.098,6.941v-6.154c0-0.724,0.588-1.313,1.312-1.313c0.725,0,1.312,0.589,1.312,1.313V51.809z
	 M65.322,45.528c0.725,0,1.315,0.588,1.315,1.312c0,0.722-0.589,1.311-1.315,1.311h-3.658v2.348h3.658
	c0.725,0,1.315,0.59,1.315,1.311c0,0.727-0.591,1.316-1.315,1.316h-4.97c-0.725,0-1.313-0.59-1.313-1.316v-4.968V46.84v-4.974
	c0-0.723,0.588-1.313,1.313-1.313h4.97c0.725,0,1.315,0.59,1.315,1.313c0,0.726-0.589,1.315-1.315,1.315h-3.658v2.347H65.322
	L65.322,45.528z"/>
</svg>
