<?xml version="1.0" encoding="utf-8"?>
<!-- Generator: Adobe Illustrator 15.1.0, SVG Export Plug-In . SVG Version: 6.00 Build 0)  -->
<!DOCTYPE svg PUBLIC "-//W3C//DTD SVG 1.1//EN" "http://www.w3.org/Graphics/SVG/1.1/DTD/svg11.dtd">
<svg version="1.1" id="Layer_1" xmlns="http://www.w3.org/2000/svg" xmlns:xlink="http://www.w3.org/1999/xlink" x="0px" y="0px"
	 width="64px" height="64px" viewBox="18 36 64 64" enable-background="new 18 36 64 64" xml:space="preserve">
<path d="M81.667,63.477c0-14.316-14.354-25.967-31.999-25.967c-17.646,0-32.001,11.65-32.001,25.967
	c0,12.836,11.385,23.59,26.764,25.625c1.042,0.221,2.459,0.688,2.818,1.576c0.323,0.808,0.209,2.075,0.102,2.892
	c0,0-0.373,2.259-0.454,2.743c-0.14,0.807-0.646,3.161,2.771,1.722c3.414-1.438,18.426-10.852,25.141-18.58h-0.002
	C79.444,74.37,81.667,69.207,81.667,63.477 M37.142,71.996h-6.356c-0.926,0-1.679-0.751-1.679-1.681V57.602
	c0-0.925,0.753-1.678,1.679-1.678c0.923,0,1.675,0.753,1.675,1.678v11.037h4.682c0.925,0,1.675,0.753,1.675,1.677
	C38.817,71.245,38.066,71.996,37.142,71.996 M43.718,70.315c0,0.928-0.752,1.681-1.679,1.681c-0.922,0-1.677-0.751-1.677-1.681
	V57.602c0-0.925,0.755-1.678,1.677-1.678c0.927,0,1.679,0.753,1.679,1.678V70.315z M59.021,70.315c0,0.728-0.46,1.367-1.146,1.595
	c-0.173,0.058-0.354,0.086-0.535,0.086c-0.52,0-1.023-0.248-1.339-0.671l-6.518-8.872v7.862c0,0.93-0.751,1.683-1.674,1.683
	c-0.926,0-1.68-0.753-1.68-1.683V57.602c0-0.723,0.459-1.361,1.147-1.592c0.173-0.058,0.353-0.086,0.533-0.086
	c0.522,0,1.024,0.25,1.34,0.672l6.518,8.875v-7.869c0-0.925,0.753-1.678,1.677-1.678c0.928,0,1.677,0.753,1.677,1.678V70.315z
	 M69.31,62.283c0.927,0,1.681,0.754,1.681,1.679c0,0.924-0.753,1.677-1.681,1.677h-4.678v3.002h4.678
	c0.926,0,1.681,0.753,1.681,1.675c0,0.93-0.754,1.683-1.681,1.683h-6.355c-0.927,0-1.68-0.753-1.68-1.683v-6.351v-0.003v-6.36
	c0-0.924,0.753-1.678,1.68-1.678h6.355c0.927,0,1.681,0.754,1.681,1.678c0,0.927-0.753,1.68-1.681,1.68h-4.678v3.002H69.31z"/>
</svg>
