<?xml version="1.0" encoding="utf-8"?>
<!-- Generator: Adobe Illustrator 15.1.0, SVG Export Plug-In . SVG Version: 6.00 Build 0)  -->
<!DOCTYPE svg PUBLIC "-//W3C//DTD SVG 1.1//EN" "http://www.w3.org/Graphics/SVG/1.1/DTD/svg11.dtd">
<svg version="1.1" id="Layer_1" xmlns="http://www.w3.org/2000/svg" xmlns:xlink="http://www.w3.org/1999/xlink" x="0px" y="0px"
	 width="50px" height="50px" viewBox="25 25 50 50" enable-background="new 25 25 50 50" xml:space="preserve">
<path d="M50,25c-9.351,0-16.932,7.581-16.932,16.932c0,0.2,0.006,0.404,0.016,0.61c0.063,1.778,0.398,3.487,0.969,5.085
	C37.665,59.5,50,74.988,50,74.988s12.333-15.487,15.947-27.36c0.57-1.599,0.906-3.308,0.969-5.086
	c0.011-0.206,0.016-0.409,0.016-0.61C66.932,32.581,59.351,25,50,25z M50,50.224c-4.579,0-8.292-3.713-8.292-8.293
	c0-4.579,3.713-8.292,8.292-8.292c4.58,0,8.293,3.713,8.293,8.292C58.293,46.511,54.58,50.224,50,50.224z"/>
</svg>
