<?xml version="1.0" encoding="utf-8"?>
<!-- Generator: Adobe Illustrator 15.1.0, SVG Export Plug-In . SVG Version: 6.00 Build 0)  -->
<!DOCTYPE svg PUBLIC "-//W3C//DTD SVG 1.1//EN" "http://www.w3.org/Graphics/SVG/1.1/DTD/svg11.dtd">
<svg version="1.1" id="Layer_3" xmlns="http://www.w3.org/2000/svg" xmlns:xlink="http://www.w3.org/1999/xlink" x="0px" y="0px"
	 width="50px" height="50px" viewBox="25 25 50 50" enable-background="new 25 25 50 50" xml:space="preserve">
<path d="M75.053,72.672L59.397,57.014c2.953-3.498,4.641-7.823,4.641-12.445c0-5.192-2.032-10.076-5.715-13.75
	c-3.67-3.68-8.568-5.705-13.79-5.705c-5.22,0-10.117,2.025-13.785,5.703c-3.686,3.676-5.716,8.56-5.716,13.752
	c0,5.194,2.03,10.078,5.716,13.754c3.686,3.674,8.581,5.698,13.785,5.698c4.634,0,8.972-1.682,12.482-4.628l15.655,15.66
	L75.053,72.672z M33.129,55.938c-3.049-3.04-4.728-7.079-4.728-11.369s1.679-8.328,4.73-11.372c3.035-3.04,7.084-4.715,11.403-4.715
	c4.321,0,8.371,1.675,11.407,4.718c3.05,3.04,4.729,7.078,4.729,11.369c0,4.292-1.679,8.329-4.729,11.369
	c-3.05,3.042-7.102,4.716-11.407,4.716C40.228,60.653,36.179,58.979,33.129,55.938z"/>
</svg>
