<?xml version="1.0" encoding="utf-8"?>
<!-- Generator: Adobe Illustrator 15.1.0, SVG Export Plug-In . SVG Version: 6.00 Build 0)  -->
<!DOCTYPE svg PUBLIC "-//W3C//DTD SVG 1.1//EN" "http://www.w3.org/Graphics/SVG/1.1/DTD/svg11.dtd">
<svg version="1.1" id="Layer_3" xmlns="http://www.w3.org/2000/svg" xmlns:xlink="http://www.w3.org/1999/xlink" x="0px" y="0px"
	 width="50px" height="50px" viewBox="-77.693 298.612 50 50" enable-background="new -77.693 298.612 50 50" xml:space="preserve">
<path d="M-29.533,344.53l-14.498-14.5c2.735-3.24,4.297-7.245,4.297-11.525c0-4.809-1.881-9.331-5.292-12.733
	c-3.399-3.408-7.934-5.284-12.77-5.284c-4.834,0-9.369,1.876-12.765,5.281c-3.414,3.405-5.294,7.927-5.294,12.736
	c0,4.809,1.88,9.332,5.294,12.736c3.413,3.403,7.946,5.278,12.765,5.278c4.291,0,8.308-1.558,11.558-4.287l14.499,14.502
	L-29.533,344.53z M-68.357,329.033c-2.823-2.815-4.378-6.554-4.378-10.528c0-3.974,1.555-7.712,4.381-10.531
	c2.81-2.816,6.56-4.367,10.56-4.367c4.001,0,7.752,1.551,10.564,4.37c2.823,2.815,4.378,6.554,4.378,10.528
	c0,3.975-1.555,7.713-4.378,10.528c-2.825,2.817-6.577,4.367-10.564,4.367C-61.783,333.4-65.533,331.85-68.357,329.033z"/>
</svg>
