<?xml version="1.0" encoding="utf-8"?>
<!-- Generator: Adobe Illustrator 15.1.0, SVG Export Plug-In . SVG Version: 6.00 Build 0)  -->
<!DOCTYPE svg PUBLIC "-//W3C//DTD SVG 1.1//EN" "http://www.w3.org/Graphics/SVG/1.1/DTD/svg11.dtd">
<svg version="1.1" id="Layer_1" xmlns="http://www.w3.org/2000/svg" xmlns:xlink="http://www.w3.org/1999/xlink" x="0px" y="0px"
	 width="595.281px" height="841.891px" viewBox="0 0 595.281 841.891" enable-background="new 0 0 595.281 841.891"
	 xml:space="preserve">
<path d="M325.292,181.207c-1.04,0-1.955,0.51-2.529,1.287l-8.204-4.518c0.115-0.327,0.189-0.673,0.189-1.04s-0.074-0.712-0.189-1.04
	l8.204-4.518c0.574,0.777,1.489,1.287,2.529,1.287c1.74,0,3.151-1.411,3.151-3.151s-1.411-3.151-3.151-3.151
	s-3.151,1.411-3.151,3.151c0,0.086,0.019,0.167,0.025,0.251l-8.594,4.732c-0.542-0.44-1.224-0.714-1.977-0.714
	c-1.74,0-3.152,1.411-3.152,3.152s1.412,3.152,3.152,3.152c0.753,0,1.435-0.274,1.977-0.714l8.594,4.732
	c-0.007,0.084-0.025,0.165-0.025,0.251c0,1.74,1.411,3.151,3.151,3.151s3.151-1.411,3.151-3.151S327.032,181.207,325.292,181.207z"
	/>
</svg>
