<?xml version="1.0" encoding="utf-8"?>
<!-- Generator: Adobe Illustrator 15.1.0, SVG Export Plug-In . SVG Version: 6.00 Build 0)  -->
<!DOCTYPE svg PUBLIC "-//W3C//DTD SVG 1.1//EN" "http://www.w3.org/Graphics/SVG/1.1/DTD/svg11.dtd">
<svg version="1.1" id="Layer_1" xmlns="http://www.w3.org/2000/svg" xmlns:xlink="http://www.w3.org/1999/xlink" x="0px" y="0px"
	 width="50px" height="50px" viewBox="25 25 50 50" enable-background="new 25 25 50 50" xml:space="preserve">
<path d="M66.191,60.096c-2.459,0-4.623,1.204-5.977,3.042L40.816,52.456c0.271-0.773,0.447-1.591,0.447-2.458
	c0-0.869-0.176-1.683-0.447-2.459l19.398-10.682c1.354,1.837,3.518,3.042,5.977,3.042c4.114,0,7.451-3.336,7.451-7.449
	c0-4.115-3.337-7.451-7.451-7.451c-4.113,0-7.451,3.335-7.451,7.451c0,0.203,0.048,0.395,0.062,0.593L38.483,44.23
	c-1.283-1.039-2.896-1.688-4.672-1.688c-4.115,0-7.454,3.335-7.454,7.452c0,4.115,3.338,7.453,7.454,7.453
	c1.777,0,3.389-0.649,4.672-1.689l20.318,11.188c-0.017,0.201-0.062,0.391-0.062,0.594c0,4.114,3.338,7.449,7.451,7.449
	c4.114,0,7.451-3.335,7.451-7.449C73.643,63.426,70.306,60.096,66.191,60.096z"/>
</svg>
