<?xml version="1.0" encoding="utf-8"?>
<!-- Generator: Adobe Illustrator 15.1.0, SVG Export Plug-In . SVG Version: 6.00 Build 0)  -->
<!DOCTYPE svg PUBLIC "-//W3C//DTD SVG 1.1//EN" "http://www.w3.org/Graphics/SVG/1.1/DTD/svg11.dtd">
<svg version="1.1" id="Layer_1" xmlns="http://www.w3.org/2000/svg" xmlns:xlink="http://www.w3.org/1999/xlink" x="0px" y="0px"
	 width="50px" height="50px" viewBox="25 25 50 50" enable-background="new 25 25 50 50" xml:space="preserve">
<g>
	<path d="M72.667,30.691c-0.097-0.095-0.191-0.191-0.287-0.286l0,0c-1.908-1.909-2.864-2.863-4.677-4.677
		c-0.954-0.954-2.386-0.954-3.243-0.095c-3.817,3.913-5.728,5.822-9.544,9.734c-0.859,0.859-0.764,2.482,0.381,3.531
		c2.195,2.195,3.245,3.245,5.44,5.439c-6.394,6.967-9.735,10.307-16.701,16.703c-2.101-2.101-3.15-3.15-5.25-5.249
		c-1.05-1.051-2.577-1.146-3.436-0.287c-3.817,3.913-5.726,5.821-9.544,9.734c-0.859,0.859-0.859,2.291-0.095,3.149
		c1.718,1.719,2.576,2.576,4.293,4.391c2.578,2.577,7.254,2.958,10.308,0.859c15.365-10.784,22.236-17.465,33.213-32.64
		C75.624,38.04,75.148,33.458,72.667,30.691z"/>
</g>
</svg>
