<?xml version="1.0" encoding="utf-8"?>
<!-- Generator: Adobe Illustrator 15.1.0, SVG Export Plug-In . SVG Version: 6.00 Build 0)  -->
<!DOCTYPE svg PUBLIC "-//W3C//DTD SVG 1.1//EN" "http://www.w3.org/Graphics/SVG/1.1/DTD/svg11.dtd">
<svg version="1.1" id="Layer_1" xmlns="http://www.w3.org/2000/svg" xmlns:xlink="http://www.w3.org/1999/xlink" x="0px" y="0px"
	 width="800px" height="600px" viewBox="0 0 800 600" enable-background="new 0 0 800 600" xml:space="preserve">
<g>
	<g>
		<path d="M409.278,303.248c0-2.546-2.377-4.621-5.048-4.621c-2.827,0-5.055,2.075-5.055,4.621c0,2.55,2.228,4.62,5.055,4.62
			c0.592,0,1.189-0.16,1.783-0.32l1.629,0.958l-0.445-1.594C408.39,305.955,409.278,304.684,409.278,303.248z M402.592,302.45
			c-0.297,0-0.594-0.313-0.594-0.636c0-0.318,0.297-0.638,0.594-0.638c0.449,0,0.743,0.319,0.743,0.638
			C403.335,302.137,403.041,302.45,402.592,302.45z M405.859,302.45c-0.293,0-0.589-0.313-0.589-0.636
			c0-0.318,0.296-0.638,0.589-0.638c0.445,0,0.745,0.319,0.745,0.638C406.604,302.137,406.305,302.45,405.859,302.45z
			 M403.41,297.928c0.191,0,0.383,0.016,0.572,0.039c-0.514-2.567-3.075-4.473-5.996-4.473c-3.267,0-5.943,2.386-5.943,5.415
			c0,1.749,0.891,3.184,2.378,4.299l-0.594,1.915l2.078-1.117c0.744,0.158,1.339,0.32,2.082,0.32c0.187,0,0.372-0.011,0.555-0.024
			c-0.116-0.426-0.183-0.872-0.183-1.335C398.358,300.185,400.587,297.928,403.41,297.928z M400.214,296.201
			c0.449,0,0.745,0.316,0.745,0.794c0,0.478-0.296,0.798-0.745,0.798c-0.445,0-0.891-0.32-0.891-0.798
			C399.323,296.517,399.769,296.201,400.214,296.201z M396.056,297.793c-0.445,0-0.896-0.32-0.896-0.798
			c0-0.478,0.45-0.794,0.896-0.794c0.445,0,0.742,0.316,0.742,0.794C396.798,297.473,396.501,297.793,396.056,297.793z"/>
	</g>
</g>
</svg>
