<?xml version="1.0" encoding="utf-8"?>
<!-- Generator: Adobe Illustrator 15.1.0, SVG Export Plug-In . SVG Version: 6.00 Build 0)  -->
<!DOCTYPE svg PUBLIC "-//W3C//DTD SVG 1.1//EN" "http://www.w3.org/Graphics/SVG/1.1/DTD/svg11.dtd">
<svg version="1.1" id="Layer_1" xmlns="http://www.w3.org/2000/svg" xmlns:xlink="http://www.w3.org/1999/xlink" x="0px" y="0px"
	 width="50px" height="50px" viewBox="25 25 50 50" enable-background="new 25 25 50 50" xml:space="preserve">
<g>
	<g>
		<path d="M75.027,56.524c0-7.389-6.899-13.413-14.652-13.413c-8.205,0-14.674,6.024-14.674,13.413
			c0,7.402,6.469,13.41,14.674,13.41c1.719,0,3.45-0.464,5.174-0.929l4.728,2.781l-1.288-4.628
			C72.448,64.384,75.027,60.692,75.027,56.524z M55.619,54.209c-0.862,0-1.724-0.909-1.724-1.845c0-0.925,0.861-1.854,1.724-1.854
			c1.305,0,2.156,0.927,2.156,1.854C57.775,53.3,56.924,54.209,55.619,54.209z M65.104,54.209c-0.851,0-1.712-0.909-1.712-1.845
			c0-0.925,0.861-1.854,1.712-1.854c1.29,0,2.159,0.927,2.159,1.854C67.263,53.3,66.396,54.209,65.104,54.209z M57.994,41.084
			c0.554,0,1.111,0.044,1.661,0.111c-1.494-7.451-8.927-12.982-17.404-12.982C32.767,28.213,25,35.139,25,43.931
			c0,5.077,2.586,9.241,6.902,12.478l-1.724,5.559l6.031-3.242c2.162,0.459,3.887,0.929,6.044,0.929c0.542,0,1.08-0.033,1.611-0.068
			c-0.338-1.238-0.531-2.533-0.531-3.876C43.331,47.634,49.8,41.084,57.994,41.084z M48.717,36.071c1.304,0,2.163,0.917,2.163,2.305
			c0,1.387-0.859,2.316-2.163,2.316c-1.292,0-2.585-0.929-2.585-2.316C46.131,36.988,47.425,36.071,48.717,36.071z M36.648,40.691
			c-1.292,0-2.6-0.929-2.6-2.316s1.306-2.305,2.6-2.305c1.292,0,2.154,0.917,2.154,2.305S37.94,40.691,36.648,40.691z"/>
	</g>
</g>
</svg>
