<?xml version="1.0" encoding="utf-8"?>
<!-- Generator: Adobe Illustrator 15.1.0, SVG Export Plug-In . SVG Version: 6.00 Build 0)  -->
<!DOCTYPE svg PUBLIC "-//W3C//DTD SVG 1.1//EN" "http://www.w3.org/Graphics/SVG/1.1/DTD/svg11.dtd">
<svg version="1.1" id="Layer_1" xmlns="http://www.w3.org/2000/svg" xmlns:xlink="http://www.w3.org/1999/xlink" x="0px" y="0px"
	 width="800px" height="600px" viewBox="0 0 800 600" enable-background="new 0 0 800 600" xml:space="preserve">
<g>
	<g>
		<path fill="#020202" d="M404.856,300.722c-0.243-0.081-0.409-0.132-0.28-0.477c0.275-0.741,0.302-1.382,0.006-1.842
			c-0.563-0.859-2.1-0.813-3.858-0.023c0-0.002-0.555,0.256-0.408-0.214c0.267-0.927,0.229-1.71-0.194-2.163
			c-0.955-1.021-3.495,0.04-5.668,2.371c-1.632,1.748-2.581,3.6-2.581,5.199c0,3.067,3.667,4.927,7.256,4.927
			c4.698,0,7.825-2.923,7.825-5.25C406.953,301.845,405.851,301.051,404.856,300.722z M399.133,307.404
			c-2.859,0.3-5.327-1.084-5.515-3.101c-0.188-2.007,1.983-3.888,4.842-4.19c2.866-0.305,5.335,1.083,5.52,3.091
			C404.164,305.224,401.996,307.098,399.133,307.404z M407.98,295.115c-1.137-1.344-2.813-1.861-4.357-1.507h-0.002
			c-0.356,0.077-0.584,0.458-0.505,0.841c0.074,0.383,0.425,0.627,0.782,0.542c1.102-0.246,2.293,0.121,3.098,1.079
			c0.809,0.954,1.023,2.261,0.678,3.404v0.001c-0.111,0.375,0.08,0.773,0.429,0.894c0.351,0.121,0.722-0.081,0.833-0.457
			c0,0,0-0.003,0.002-0.003C409.422,298.3,409.115,296.464,407.98,295.115z M405.981,299.528c0.302,0.101,0.622-0.072,0.718-0.389
			c0.238-0.784,0.092-1.68-0.461-2.336c-0.553-0.66-1.369-0.906-2.125-0.734c-0.309,0.07-0.503,0.393-0.438,0.721
			c0.066,0.328,0.368,0.541,0.677,0.467v0.002c0.368-0.082,0.765,0.041,1.037,0.363c0.269,0.317,0.343,0.755,0.228,1.139
			C405.521,299.085,405.686,299.425,405.981,299.528z M399.421,301.664c-1.362-0.379-2.9,0.346-3.493,1.629
			c-0.601,1.313-0.021,2.769,1.356,3.242c1.423,0.492,3.104-0.26,3.69-1.675C401.55,303.479,400.829,302.055,399.421,301.664z
			 M398.379,305.01c-0.277,0.476-0.865,0.682-1.316,0.464c-0.439-0.214-0.57-0.767-0.292-1.225c0.274-0.46,0.846-0.663,1.291-0.469
			C398.51,303.989,398.654,304.531,398.379,305.01z M399.291,303.76c-0.097,0.178-0.321,0.266-0.491,0.193
			c-0.175-0.074-0.225-0.279-0.127-0.462c0.098-0.181,0.309-0.269,0.482-0.196C399.324,303.363,399.388,303.571,399.291,303.76z"/>
	</g>
</g>
</svg>
