<?xml version="1.0" encoding="utf-8"?>
<!-- Generator: Adobe Illustrator 15.1.0, SVG Export Plug-In . SVG Version: 6.00 Build 0)  -->
<!DOCTYPE svg PUBLIC "-//W3C//DTD SVG 1.1//EN" "http://www.w3.org/Graphics/SVG/1.1/DTD/svg11.dtd">
<svg version="1.1" id="Layer_1" xmlns="http://www.w3.org/2000/svg" xmlns:xlink="http://www.w3.org/1999/xlink" x="0px" y="0px"
	 width="50px" height="50px" viewBox="25 25 50 50" enable-background="new 25 25 50 50" xml:space="preserve">
<g>
	<g>
		<path fill="#020202" d="M62.696,49.195c-0.705-0.238-1.188-0.385-0.813-1.386c0.797-2.152,0.876-4.014,0.016-5.348
			c-1.635-2.494-6.094-2.36-11.2-0.067c0-0.006-1.61,0.743-1.181-0.621c0.773-2.691,0.663-4.964-0.564-6.28
			c-2.773-2.963-10.147,0.117-16.455,6.884c-4.737,5.075-7.492,10.453-7.492,15.094c0,8.902,10.646,14.303,21.064,14.303
			c13.639,0,22.716-8.484,22.716-15.241C68.782,52.455,65.582,50.148,62.696,49.195z M46.08,68.593
			c-8.297,0.87-15.463-3.147-16.009-9.006c-0.546-5.824,5.757-11.285,14.056-12.163c8.321-0.884,15.488,3.143,16.026,8.975
			C60.687,62.265,54.393,67.702,46.08,68.593z M71.766,32.917c-3.303-3.902-8.167-5.403-12.65-4.375h-0.006
			c-1.034,0.225-1.694,1.33-1.465,2.443c0.216,1.111,1.233,1.819,2.271,1.573c3.197-0.714,6.655,0.351,8.991,3.131
			c2.348,2.771,2.968,6.565,1.968,9.883v0.001c-0.319,1.09,0.232,2.245,1.244,2.596c1.021,0.351,2.1-0.235,2.418-1.327
			c0,0,0-0.008,0.008-0.008C75.95,42.161,75.06,36.832,71.766,32.917z M65.963,45.727c0.875,0.293,1.803-0.208,2.083-1.128
			c0.688-2.277,0.268-4.878-1.338-6.782c-1.608-1.916-3.975-2.631-6.17-2.132c-0.896,0.204-1.459,1.142-1.272,2.094
			c0.193,0.952,1.069,1.571,1.965,1.355v0.005c1.069-0.236,2.223,0.12,3.011,1.055c0.782,0.92,0.997,2.191,0.663,3.308
			C64.627,44.441,65.102,45.427,65.963,45.727z M46.917,51.928c-3.955-1.1-8.417,1.004-10.141,4.729
			c-1.744,3.81-0.059,8.041,3.938,9.411c4.131,1.43,9.011-0.753,10.711-4.864C53.097,57.196,51.005,53.063,46.917,51.928z
			 M43.892,61.641c-0.805,1.384-2.512,1.979-3.822,1.35c-1.272-0.623-1.652-2.229-0.844-3.558c0.793-1.335,2.455-1.925,3.745-1.364
			C44.272,58.679,44.691,60.252,43.892,61.641z M46.54,58.012c-0.281,0.516-0.933,0.771-1.426,0.563
			c-0.507-0.217-0.652-0.812-0.368-1.342c0.283-0.524,0.898-0.779,1.4-0.571C46.635,56.86,46.82,57.463,46.54,58.012z"/>
	</g>
</g>
</svg>
