<?xml version="1.0" encoding="utf-8"?>
<!-- Generator: Adobe Illustrator 15.1.0, SVG Export Plug-In . SVG Version: 6.00 Build 0)  -->
<!DOCTYPE svg PUBLIC "-//W3C//DTD SVG 1.1//EN" "http://www.w3.org/Graphics/SVG/1.1/DTD/svg11.dtd">
<svg version="1.1" id="Capa_1" xmlns="http://www.w3.org/2000/svg" xmlns:xlink="http://www.w3.org/1999/xlink" x="0px" y="0px"
	 width="50px" height="50px" viewBox="25 25 50 50" enable-background="new 25 25 50 50" xml:space="preserve">
<g>
	<path id="WhatsApp" d="M74.969,49.341c0,13.444-10.98,24.341-24.53,24.341c-4.301,0-8.342-1.098-11.858-3.028L25,74.969
		l4.427-13.059c-2.233-3.668-3.52-7.971-3.52-12.569C25.908,35.898,36.89,25,50.438,25C63.988,25,74.969,35.898,74.969,49.341z
		 M50.438,28.876c-11.374,0-20.624,9.18-20.624,20.464c0,4.479,1.459,8.625,3.929,11.997l-2.578,7.602l7.926-2.521
		c3.256,2.139,7.157,3.387,11.346,3.387c11.371,0,20.624-9.181,20.624-20.464C71.063,38.058,61.812,28.876,50.438,28.876z
		 M62.826,54.945c-0.152-0.246-0.554-0.396-1.154-0.694c-0.601-0.299-3.559-1.743-4.107-1.941c-0.553-0.198-0.952-0.299-1.354,0.299
		c-0.4,0.598-1.553,1.94-1.904,2.337c-0.352,0.401-0.701,0.451-1.303,0.152c-0.602-0.298-2.538-0.929-4.835-2.961
		c-1.787-1.581-2.994-3.534-3.345-4.132c-0.35-0.597-0.037-0.919,0.264-1.216c0.271-0.268,0.602-0.697,0.902-1.045
		c0.302-0.348,0.402-0.596,0.602-0.995c0.201-0.397,0.101-0.746-0.05-1.045c-0.149-0.298-1.354-3.234-1.854-4.429
		c-0.501-1.193-1.001-0.995-1.353-0.995c-0.35,0-0.751-0.05-1.152-0.05c-0.4,0-1.053,0.149-1.604,0.747
		c-0.551,0.597-2.104,2.041-2.104,4.976c0,2.936,2.153,5.773,2.455,6.17s4.159,6.619,10.271,9.009
		c6.114,2.387,6.114,1.589,7.217,1.49c1.101-0.099,3.557-1.443,4.059-2.836C62.977,56.39,62.977,55.194,62.826,54.945z"/>
</g>
</svg>
