<svg xmlns="http://www.w3.org/2000/svg" xmlns:xlink="http://www.w3.org/1999/xlink" version="1.1" x="0px" y="0px" viewBox="0 0 100 100" enable-background="new 0 0 100 100" xml:space="preserve"><g><path d="M91.648,29.694c-1.056-4.57-4.81-7.938-9.327-8.441c-10.699-1.191-21.527-1.934-32.309-1.928   c-10.782-0.006-21.611,0.737-32.311,1.928c-4.517,0.503-8.269,3.871-9.324,8.441c-1.501,6.506-1.52,13.607-1.52,20.307   c0,6.699,0,13.8,1.502,20.307c1.056,4.566,4.808,7.938,9.325,8.438c10.699,1.191,21.527,1.934,32.31,1.929   c10.782,0.005,21.611-0.737,32.309-1.929c4.518-0.501,8.271-3.872,9.327-8.438c1.501-6.507,1.512-13.608,1.512-20.307   C93.142,43.302,93.15,36.2,91.648,29.694 M64.711,51.988l-20.34,10.997c-2.022,1.094-3.677,0.107-3.677-2.191V39.207   c0-2.299,1.654-3.286,3.677-2.192l20.34,10.998C66.734,49.105,66.734,50.895,64.711,51.988"></path></g></svg>