<?xml version="1.0" encoding="utf-8"?>
<!-- Generator: Adobe Illustrator 15.1.0, SVG Export Plug-In . SVG Version: 6.00 Build 0)  -->
<!DOCTYPE svg PUBLIC "-//W3C//DTD SVG 1.1//EN" "http://www.w3.org/Graphics/SVG/1.1/DTD/svg11.dtd">
<svg version="1.1" id="Layer_1" xmlns="http://www.w3.org/2000/svg" xmlns:xlink="http://www.w3.org/1999/xlink" x="0px" y="0px"
	 width="50px" height="50px" viewBox="25 25 50 50" enable-background="new 25 25 50 50" xml:space="preserve">
<g>
	<path d="M74.151,38.229c-0.613-2.648-2.788-4.602-5.407-4.893c-6.202-0.689-12.478-1.121-18.729-1.117
		c-6.25-0.004-12.527,0.427-18.73,1.117c-2.618,0.292-4.793,2.245-5.404,4.893C25.011,42,25,46.117,25,50
		c0,3.884,0,8.001,0.871,11.771c0.612,2.647,2.787,4.602,5.405,4.892c6.202,0.69,12.479,1.121,18.729,1.118
		c6.251,0.003,12.527-0.428,18.729-1.118c2.618-0.29,4.795-2.244,5.406-4.892c0.871-3.771,0.876-7.888,0.876-11.771
		C75.017,46.117,75.021,42,74.151,38.229 M58.536,51.152l-11.79,6.374c-1.171,0.635-2.131,0.063-2.131-1.27V43.743
		c0-1.332,0.958-1.904,2.131-1.27l11.79,6.375C59.709,49.48,59.709,50.519,58.536,51.152"/>
</g>
</svg>
